<?xml version="1.0" encoding="UTF-8"?>
<svg id="_レイヤー_2" data-name="レイヤー 2" xmlns="http://www.w3.org/2000/svg" viewBox="0 0 279.97 66.72">
  <defs>
    <style>
      .cls-1 {
        stroke-width: 0px;
      }
    </style>
  </defs>
  <g id="_レイヤー_1-2" data-name="レイヤー 1">
    <g>
      <path class="cls-1" d="M17.12,30.06c.6,0,1.11.21,1.54.64s.6.94.53,1.54c-.53,4.67-2.85,7-6.94,7-1.34,0-2.52-.32-3.53-.95s-1.79-1.48-2.36-2.52c-.57-1.04-.85-2.18-.85-3.42V15.69c0-.32-.16-.48-.48-.48H1.86c-.5,0-.93-.19-1.3-.56s-.56-.8-.56-1.3.19-.92.56-1.27c.37-.35.8-.53,1.3-.53h3.18c.32,0,.48-.16.48-.48V2.01c0-.56.19-1.04.58-1.43.39-.39.87-.58,1.43-.58.53,0,.99.19,1.38.58.39.39.58.87.58,1.43v9.07c0,.32.16.48.48.48h6.42c.49,0,.92.18,1.27.53.35.35.53.78.53,1.27s-.18.93-.53,1.3c-.35.37-.78.56-1.27.56h-6.42c-.32,0-.48.16-.48.48v16.65c0,.11.04.4.13.87.09.48.33.94.72,1.38.39.44,1.02.66,1.91.66,1.02,0,1.75-.28,2.17-.85.42-.56.71-1.43.85-2.6.07-.49.28-.91.64-1.25.35-.34.76-.5,1.22-.5Z"/>
      <path class="cls-1" d="M38.17,39.23c-1.98,0-3.84-.36-5.57-1.09-1.73-.72-3.25-1.73-4.56-3.02-1.31-1.29-2.33-2.78-3.07-4.48-.74-1.7-1.11-3.52-1.11-5.46s.37-3.76,1.11-5.46c.74-1.7,1.77-3.19,3.07-4.48,1.31-1.29,2.83-2.3,4.56-3.02,1.73-.72,3.59-1.09,5.57-1.09s3.83.36,5.54,1.09c1.71.72,3.22,1.73,4.53,3.02,1.31,1.29,2.33,2.78,3.07,4.48.74,1.7,1.11,3.52,1.11,5.46s-.37,3.76-1.11,5.46c-.74,1.7-1.77,3.19-3.07,4.48-1.31,1.29-2.82,2.3-4.53,3.02-1.71.72-3.56,1.09-5.54,1.09ZM38.17,35.47c2.01,0,3.8-.48,5.35-1.43,1.55-.95,2.77-2.21,3.66-3.76.88-1.55,1.33-3.25,1.33-5.09s-.45-3.53-1.35-5.09c-.9-1.55-2.13-2.81-3.68-3.76-1.56-.95-3.32-1.43-5.3-1.43s-3.85.48-5.41,1.43c-1.56.95-2.77,2.21-3.66,3.76-.88,1.56-1.33,3.25-1.33,5.09s.45,3.53,1.35,5.09c.9,1.56,2.13,2.81,3.68,3.76,1.55.95,3.34,1.43,5.35,1.43Z"/>
      <path class="cls-1" d="M103.01,35.52c.49,0,.92.18,1.27.53.35.35.53.79.53,1.33s-.19.98-.58,1.35c-.39.37-.85.54-1.38.5-1.1-.11-1.96-.19-2.6-.24-.64-.05-1.24-.08-1.8-.08-.64,0-1.26.03-1.88.08-.62.05-1.46.13-2.52.24-.53.04-.99-.13-1.38-.5-.39-.37-.58-.82-.58-1.35s.18-.97.53-1.33.78-.53,1.27-.53c.32,0,.65.02,1.01.05.35.04.71.07,1.06.11h.11c.25,0,.37-.14.37-.42v-13.84c0-1.66-.24-3-.72-4.03-.48-1.02-1.07-1.64-1.78-1.86-.39-.14-.9-.21-1.54-.21-.99,0-2.22.35-3.68,1.06-1.47.71-3.23,2.12-5.28,4.24-.18.18-.26.37-.26.58v14.05c0,.28.12.42.37.42.39,0,.78-.03,1.17-.08.39-.05.76-.08,1.11-.08.49,0,.92.18,1.27.53.35.35.53.79.53,1.33s-.19.98-.58,1.35c-.39.37-.87.54-1.43.5-1.1-.11-1.96-.19-2.6-.24-.64-.05-1.22-.08-1.75-.08-.67,0-1.31.03-1.91.08-.6.05-1.43.13-2.49.24-.57.04-1.04-.13-1.43-.5-.39-.37-.58-.82-.58-1.35s.18-.97.53-1.33.78-.53,1.27-.53c.32,0,.67.02,1.06.05.39.04.76.07,1.11.11h.11c.25,0,.37-.14.37-.42v-13.84c0-3.46-.74-5.44-2.23-5.94-.18-.07-.37-.12-.58-.16-.21-.03-.44-.05-.69-.05-.99,0-2.25.37-3.76,1.11-1.52.74-3.32,2.19-5.41,4.35-.18.18-.27.37-.27.58v13.94c0,.28.12.42.37.42.39,0,.77-.03,1.14-.08s.73-.08,1.09-.08c.49,0,.92.18,1.27.53.35.35.53.79.53,1.33s-.19.98-.58,1.35c-.39.37-.85.54-1.38.5-1.1-.11-1.96-.19-2.6-.24-.64-.05-1.24-.08-1.8-.08-.64,0-1.26.03-1.88.08-.62.05-1.46.13-2.52.24-.53.04-.99-.13-1.38-.5-.39-.37-.58-.82-.58-1.35s.18-.97.53-1.33.78-.53,1.27-.53c.28,0,.62.02,1.01.05.39.04.76.07,1.11.11h.11c.25,0,.37-.14.37-.42V15.22c0-.28-.12-.42-.37-.42-.35,0-.73.02-1.14.05-.41.04-.8.09-1.19.16-.57.07-1.06-.09-1.48-.48-.42-.39-.64-.87-.64-1.43s.21-1.04.64-1.43c.42-.39.92-.55,1.48-.48.81.14,1.71.25,2.7.32h1.96c.56,0,1.03.19,1.4.56s.56.84.56,1.4v2.01c0,.21.06.34.19.37.12.04.26-.02.4-.16,1.66-1.55,3.28-2.7,4.85-3.45,1.57-.74,3.03-1.11,4.37-1.11,1.1,0,2.17.25,3.23.74.81.39,1.48.95,1.99,1.7.51.74.89,1.56,1.14,2.44.11.42.32.48.64.16,1.77-1.77,3.46-3.05,5.09-3.84,1.62-.8,3.16-1.19,4.61-1.19,1.24,0,2.39.27,3.45.79,1.13.53,1.99,1.35,2.57,2.47s.98,2.31,1.19,3.58.32,2.42.32,3.45v13.84c0,.28.14.42.42.42.39,0,.76-.03,1.11-.08.35-.05.71-.08,1.06-.08Z"/>
      <path class="cls-1" d="M123.79,39.23c-1.98,0-3.84-.36-5.57-1.09-1.73-.72-3.25-1.73-4.56-3.02-1.31-1.29-2.33-2.78-3.07-4.48-.74-1.7-1.11-3.52-1.11-5.46s.37-3.76,1.11-5.46c.74-1.7,1.77-3.19,3.07-4.48,1.31-1.29,2.83-2.3,4.56-3.02,1.73-.72,3.59-1.09,5.57-1.09s3.83.36,5.54,1.09c1.71.72,3.22,1.73,4.53,3.02,1.31,1.29,2.33,2.78,3.07,4.48.74,1.7,1.11,3.52,1.11,5.46s-.37,3.76-1.11,5.46c-.74,1.7-1.77,3.19-3.07,4.48-1.31,1.29-2.82,2.3-4.53,3.02-1.71.72-3.56,1.09-5.54,1.09ZM123.79,35.47c2.01,0,3.8-.48,5.35-1.43,1.55-.95,2.77-2.21,3.66-3.76.88-1.55,1.33-3.25,1.33-5.09s-.45-3.53-1.35-5.09c-.9-1.55-2.13-2.81-3.68-3.76-1.56-.95-3.32-1.43-5.3-1.43s-3.85.48-5.41,1.43c-1.56.95-2.77,2.21-3.66,3.76-.88,1.56-1.33,3.25-1.33,5.09s.45,3.53,1.35,5.09c.9,1.56,2.13,2.81,3.68,3.76,1.55.95,3.34,1.43,5.35,1.43Z"/>
      <path class="cls-1" d="M159.04,30.06c.6,0,1.11.21,1.54.64.42.42.6.94.53,1.54-.53,4.67-2.85,7-6.95,7-1.34,0-2.52-.32-3.53-.95s-1.79-1.48-2.36-2.52c-.56-1.04-.85-2.18-.85-3.42V15.69c0-.32-.16-.48-.48-.48h-3.18c-.5,0-.93-.19-1.3-.56s-.56-.8-.56-1.3.19-.92.56-1.27c.37-.35.8-.53,1.3-.53h3.18c.32,0,.48-.16.48-.48V2.01c0-.56.19-1.04.58-1.43.39-.39.87-.58,1.43-.58.53,0,.99.19,1.38.58.39.39.58.87.58,1.43v9.07c0,.32.16.48.48.48h6.41c.5,0,.92.18,1.27.53.35.35.53.78.53,1.27s-.18.93-.53,1.3-.78.56-1.27.56h-6.41c-.32,0-.48.16-.48.48v16.65c0,.11.04.4.13.87.09.48.33.94.71,1.38.39.44,1.03.66,1.91.66,1.03,0,1.75-.28,2.17-.85.42-.56.71-1.43.85-2.6.07-.49.28-.91.64-1.25.35-.34.76-.5,1.22-.5Z"/>
      <path class="cls-1" d="M180.09,39.23c-1.98,0-3.83-.36-5.57-1.09-1.73-.72-3.25-1.73-4.56-3.02-1.31-1.29-2.33-2.78-3.08-4.48-.74-1.7-1.11-3.52-1.11-5.46s.37-3.76,1.11-5.46c.74-1.7,1.77-3.19,3.08-4.48,1.31-1.29,2.83-2.3,4.56-3.02,1.73-.72,3.59-1.09,5.57-1.09s3.83.36,5.54,1.09c1.71.72,3.22,1.73,4.53,3.02,1.31,1.29,2.33,2.78,3.07,4.48.74,1.7,1.11,3.52,1.11,5.46s-.37,3.76-1.11,5.46c-.74,1.7-1.77,3.19-3.07,4.48-1.31,1.29-2.82,2.3-4.53,3.02-1.71.72-3.56,1.09-5.54,1.09ZM180.09,35.47c2.01,0,3.8-.48,5.35-1.43,1.55-.95,2.77-2.21,3.66-3.76.88-1.55,1.33-3.25,1.33-5.09s-.45-3.53-1.35-5.09c-.9-1.55-2.13-2.81-3.68-3.76-1.56-.95-3.32-1.43-5.3-1.43s-3.85.48-5.41,1.43c-1.56.95-2.78,2.21-3.66,3.76-.88,1.56-1.33,3.25-1.33,5.09s.45,3.53,1.35,5.09c.9,1.56,2.13,2.81,3.68,3.76,1.55.95,3.34,1.43,5.35,1.43Z"/>
      <path class="cls-1" d="M244.93,35.52c.49,0,.92.18,1.27.53.35.35.53.79.53,1.33s-.2.98-.58,1.35-.85.54-1.38.5c-1.1-.11-1.96-.19-2.6-.24-.64-.05-1.24-.08-1.8-.08-.64,0-1.26.03-1.88.08-.62.05-1.46.13-2.52.24-.53.04-.99-.13-1.38-.5-.39-.37-.58-.82-.58-1.35s.18-.97.53-1.33c.35-.35.78-.53,1.27-.53.32,0,.65.02,1.01.05.35.04.71.07,1.06.11h.11c.25,0,.37-.14.37-.42v-13.84c0-1.66-.24-3-.72-4.03-.48-1.02-1.07-1.64-1.78-1.86-.39-.14-.9-.21-1.54-.21-.99,0-2.22.35-3.68,1.06-1.47.71-3.23,2.12-5.27,4.24-.18.18-.27.37-.27.58v14.05c0,.28.12.42.37.42.39,0,.78-.03,1.17-.08.39-.05.76-.08,1.11-.08.49,0,.92.18,1.27.53.35.35.53.79.53,1.33s-.19.98-.58,1.35-.87.54-1.43.5c-1.1-.11-1.96-.19-2.6-.24-.64-.05-1.22-.08-1.75-.08-.67,0-1.31.03-1.91.08-.6.05-1.43.13-2.49.24-.57.04-1.04-.13-1.43-.5s-.58-.82-.58-1.35.18-.97.53-1.33c.35-.35.78-.53,1.27-.53.32,0,.67.02,1.06.05.39.04.76.07,1.11.11h.11c.25,0,.37-.14.37-.42v-13.84c0-3.46-.74-5.44-2.23-5.94-.18-.07-.37-.12-.58-.16-.21-.03-.44-.05-.69-.05-.99,0-2.24.37-3.76,1.11-1.52.74-3.32,2.19-5.41,4.35-.18.18-.27.37-.27.58v13.94c0,.28.12.42.37.42.39,0,.77-.03,1.14-.08s.73-.08,1.09-.08c.5,0,.92.18,1.27.53.35.35.53.79.53,1.33s-.19.98-.58,1.35c-.39.37-.85.54-1.38.5-1.1-.11-1.96-.19-2.6-.24-.64-.05-1.24-.08-1.8-.08-.64,0-1.26.03-1.88.08-.62.05-1.46.13-2.52.24-.53.04-.99-.13-1.38-.5s-.58-.82-.58-1.35.18-.97.53-1.33c.35-.35.78-.53,1.27-.53.28,0,.62.02,1.01.05.39.04.76.07,1.11.11h.11c.25,0,.37-.14.37-.42V15.22c0-.28-.12-.42-.37-.42-.35,0-.73.02-1.14.05-.41.04-.8.09-1.19.16-.57.07-1.06-.09-1.48-.48-.42-.39-.64-.87-.64-1.43s.21-1.04.64-1.43c.42-.39.92-.55,1.48-.48.81.14,1.71.25,2.7.32h1.96c.56,0,1.03.19,1.4.56s.56.84.56,1.4v2.01c0,.21.06.34.19.37.12.04.26-.02.4-.16,1.66-1.55,3.28-2.7,4.85-3.45,1.57-.74,3.03-1.11,4.37-1.11,1.1,0,2.17.25,3.23.74.81.39,1.48.95,1.99,1.7.51.74.89,1.56,1.14,2.44.11.42.32.48.64.16,1.77-1.77,3.46-3.05,5.09-3.84,1.62-.8,3.16-1.19,4.61-1.19,1.24,0,2.39.27,3.45.79,1.13.53,1.99,1.35,2.57,2.47.58,1.11.98,2.31,1.19,3.58s.32,2.42.32,3.45v13.84c0,.28.14.42.42.42.39,0,.76-.03,1.11-.08.35-.05.71-.08,1.06-.08Z"/>
      <path class="cls-1" d="M265.71,39.23c-1.98,0-3.83-.36-5.57-1.09-1.73-.72-3.25-1.73-4.56-3.02-1.31-1.29-2.33-2.78-3.08-4.48-.74-1.7-1.11-3.52-1.11-5.46s.37-3.76,1.11-5.46c.74-1.7,1.77-3.19,3.08-4.48,1.31-1.29,2.83-2.3,4.56-3.02,1.73-.72,3.59-1.09,5.57-1.09s3.83.36,5.54,1.09c1.71.72,3.22,1.73,4.53,3.02,1.31,1.29,2.33,2.78,3.07,4.48.74,1.7,1.11,3.52,1.11,5.46s-.37,3.76-1.11,5.46c-.74,1.7-1.77,3.19-3.07,4.48-1.31,1.29-2.82,2.3-4.53,3.02-1.71.72-3.56,1.09-5.54,1.09ZM265.71,35.47c2.01,0,3.8-.48,5.35-1.43,1.55-.95,2.77-2.21,3.66-3.76.88-1.55,1.33-3.25,1.33-5.09s-.45-3.53-1.35-5.09c-.9-1.55-2.13-2.81-3.68-3.76-1.56-.95-3.32-1.43-5.3-1.43s-3.85.48-5.41,1.43c-1.56.95-2.78,2.21-3.66,3.76-.88,1.56-1.33,3.25-1.33,5.09s.45,3.53,1.35,5.09c.9,1.56,2.13,2.81,3.68,3.76,1.55.95,3.34,1.43,5.35,1.43Z"/>
    </g>
    <g>
      <path class="cls-1" d="M62.99,65.05c.13-.51.31-1.08.53-1.7s.49-1.28.79-1.95c.3-.68.63-1.37.99-2.06.36-.7.73-1.38,1.12-2.04.39-.66.78-1.29,1.19-1.87s.81-1.11,1.2-1.58c.11-.13.26-.29.43-.47.17-.19.36-.38.57-.58s.43-.4.66-.6.46-.38.7-.53c.23-.16.46-.29.68-.38.22-.1.43-.15.61-.15.26,0,.49.04.7.13.21.09.39.21.54.37.15.16.27.35.35.58.08.23.13.47.13.74,0,.11,0,.23-.03.34-.02.11-.04.23-.07.35l-1.12,5.62c.1-.15.24-.36.42-.63.18-.26.39-.56.61-.89.23-.33.47-.66.71-1.02.25-.35.49-.69.73-1.02.24-.33.46-.63.66-.9.2-.27.37-.49.49-.66l.18-.23c.12-.15.27-.34.44-.54.17-.21.37-.43.58-.65s.43-.45.67-.67c.23-.22.47-.42.71-.59s.48-.32.71-.43.46-.17.67-.17c.16,0,.3.04.4.11.11.07.19.17.26.3.07.12.11.27.14.44.03.17.04.34.04.52,0,.28-.02.57-.07.86-.05.29-.1.55-.16.79-.03.19-.08.46-.14.81-.06.35-.12.75-.2,1.2s-.16.94-.25,1.47c-.09.53-.18,1.06-.27,1.61-.09.54-.18,1.08-.27,1.61-.09.53-.17,1.03-.25,1.49s-.15.87-.21,1.23c-.06.36-.12.64-.16.84-.02.09-.05.22-.1.38-.04.16-.11.32-.19.47-.08.15-.19.29-.33.4s-.31.17-.51.17c-.11,0-.21-.04-.31-.11s-.18-.16-.26-.27-.14-.22-.18-.35-.07-.24-.08-.34l2.09-9.95c.02-.09.04-.18.05-.25.01-.07.02-.14.02-.21,0-.07,0-.14-.02-.2-.02-.06-.03-.12-.05-.17-.02-.06-.04-.11-.06-.16-.3.23-.63.52-.97.87-.35.35-.69.75-1.05,1.18-.35.43-.7.89-1.06,1.38-.35.49-.69.97-1,1.46-.25.38-.52.79-.8,1.21-.29.42-.57.85-.86,1.27-.29.43-.57.85-.84,1.28-.27.43-.52.83-.74,1.22-.11.19-.22.43-.33.72-.11.3-.24.58-.38.87s-.29.52-.44.72-.34.3-.54.3c-.15,0-.28-.02-.39-.07s-.19-.11-.25-.19-.1-.17-.13-.27c-.03-.1-.04-.22-.04-.34,0-.15.02-.31.04-.46.03-.15.06-.3.1-.44.14-.59.29-1.18.44-1.76s.31-1.18.48-1.79c.16-.61.33-1.24.51-1.9.17-.65.35-1.35.53-2.09.05-.21.1-.44.16-.7.06-.26.12-.52.17-.79.05-.27.1-.52.13-.77s.05-.47.05-.66c0-.17-.01-.31-.04-.42-.03-.1-.08-.16-.15-.16-.25,0-.51.09-.79.28-.28.19-.55.43-.84.73-.28.3-.56.65-.84,1.04-.28.39-.54.79-.79,1.2-.25.41-.48.82-.69,1.22s-.4.76-.55,1.09c-.03.07-.08.16-.15.28s-.15.28-.25.49c-.1.21-.23.48-.38.81-.15.33-.33.75-.53,1.25-.21.5-.44,1.1-.71,1.8-.27.7-.57,1.52-.91,2.46-.06.16-.17.29-.32.39-.15.1-.31.15-.47.15-.35,0-.61-.09-.77-.28-.16-.19-.25-.42-.25-.69,0-.12.02-.25.05-.4Z"/>
      <path class="cls-1" d="M91.59,66.05c-.14,0-.27-.03-.37-.08s-.2-.12-.27-.21c-.07-.09-.12-.19-.16-.3-.04-.11-.06-.23-.06-.34,0-.1.03-.24.08-.42s.12-.38.21-.6c.08-.22.18-.45.28-.7.1-.24.2-.47.29-.69.09-.22.17-.43.24-.61.07-.19.11-.33.14-.44.03-.12.06-.27.1-.43.04-.17.09-.35.14-.55.05-.2.1-.41.15-.62.05-.22.1-.44.16-.66-.09.02-.21.04-.35.06-.14.02-.28.03-.44.04-.22.02-.44.05-.65.09s-.43.09-.66.14c-.22.05-.46.1-.7.16-.24.06-.5.12-.78.18-.4.09-.81.18-1.21.29-.4.11-.82.16-1.26.16-.13,0-.26-.04-.37-.11s-.24-.12-.38-.16c-.13.21-.26.45-.38.69-.12.24-.23.5-.33.75-.1.26-.19.51-.27.76s-.15.49-.21.71c-.03.12-.06.28-.09.47s-.05.39-.07.58-.04.39-.06.57c-.02.18-.04.33-.06.43-.02.1-.06.2-.12.3s-.13.19-.22.27c-.09.08-.19.15-.29.2-.11.05-.21.08-.32.08-.19,0-.34-.05-.46-.17-.12-.11-.21-.25-.28-.41-.07-.17-.12-.34-.15-.54-.03-.19-.04-.37-.04-.53,0-.41.05-.83.15-1.27.1-.44.24-.89.41-1.34.17-.45.37-.91.6-1.37.23-.46.48-.92.75-1.37.22-.41.5-.88.83-1.42.33-.54.7-1.09,1.1-1.66.41-.57.85-1.12,1.32-1.67.47-.54.96-1.03,1.48-1.45.51-.43,1.03-.77,1.57-1.03.54-.26,1.07-.39,1.6-.39.56,0,1.02.1,1.39.3.37.2.67.47.89.82.22.34.38.74.47,1.2.09.46.14.94.14,1.45,0,.45-.03.91-.09,1.39s-.13.94-.21,1.4-.17.9-.27,1.32-.19.81-.27,1.15l-.35,1.37s-.04.12-.08.24c-.04.12-.08.27-.14.44-.06.17-.12.36-.19.55-.07.2-.14.39-.21.58-.07.19-.14.37-.2.53s-.12.29-.17.39h.01c-.05.17-.1.34-.15.52-.05.18-.13.34-.22.49-.09.14-.21.26-.36.35-.15.09-.34.14-.57.14ZM92.1,53.45c-.3,0-.6.06-.9.19-.3.12-.59.29-.88.49-.29.2-.57.44-.84.7-.27.27-.53.54-.77.83-.25.28-.48.57-.69.85s-.41.55-.58.79c-.03.04-.06.09-.11.16-.04.06-.09.13-.13.21-.04.08-.09.16-.13.24-.04.08-.07.16-.1.23h1.04c.38,0,.81-.03,1.29-.08.48-.05.96-.12,1.43-.19.47-.07.91-.15,1.3-.23s.69-.14.9-.18c.03-.09.05-.21.08-.35s.05-.31.07-.49.04-.37.05-.58c0-.2.02-.41.02-.63,0-.17,0-.37-.02-.6-.01-.22-.05-.44-.12-.64-.07-.2-.17-.37-.31-.51-.14-.14-.33-.21-.58-.21Z"/>
      <path class="cls-1" d="M101.04,52.04c.17,0,.32.02.43.06s.2.1.26.18c.06.08.1.18.13.31.02.13.04.28.04.45,0,.15,0,.3-.01.44-.01.14-.03.28-.05.42-.02.14-.05.29-.09.44s-.07.32-.11.5c-.13.54-.28,1.07-.46,1.61s-.35,1.08-.53,1.65l-.37,1.23c.38-.1.74-.24,1.08-.42.34-.18.67-.39.99-.63.32-.24.64-.51.95-.81s.62-.61.95-.94c.5-.52,1-1.05,1.5-1.61s.98-1.12,1.44-1.7c.07-.09.15-.23.23-.4.08-.17.18-.35.29-.52.11-.17.24-.33.39-.45.15-.13.33-.19.53-.19.13,0,.25.04.36.13.1.09.19.2.26.33s.12.28.15.43c.03.16.05.3.05.44,0,.11-.01.21-.03.29-.38.56-.78,1.11-1.21,1.63-.43.52-.88,1.02-1.34,1.5s-.95.96-1.44,1.42c-.49.46-.99.91-1.5,1.35.69.24,1.32.54,1.9.92s1.08.83,1.52,1.36.81,1.15,1.11,1.86c.3.7.52,1.5.66,2.39-.04.12-.1.24-.17.35-.07.11-.16.21-.26.29-.1.08-.21.15-.34.21s-.27.08-.41.08c-.23,0-.42-.05-.55-.15-.13-.1-.23-.22-.3-.37-.07-.15-.12-.31-.15-.49-.03-.18-.06-.35-.09-.51l-.04-.25c-.07-.45-.21-.87-.41-1.26-.2-.39-.43-.74-.69-1.05s-.55-.57-.87-.79-.62-.38-.92-.5l-.29-.11c-.12-.05-.26-.1-.41-.15s-.31-.1-.46-.15c-.16-.05-.31-.09-.46-.12-.15-.03-.28-.04-.39-.04-.07,0-.2.04-.39.12-.19.08-.41.16-.64.26-.23.09-.46.19-.68.27-.22.09-.39.14-.49.17l-.25,1.03c-.07.3-.13.59-.16.87-.03.28-.05.54-.07.79,0,.21-.02.43-.02.67-.01.24-.05.47-.11.67-.06.21-.16.38-.31.52-.14.14-.36.21-.64.21-.17,0-.31-.05-.42-.15-.1-.1-.18-.23-.24-.38s-.09-.31-.1-.48c-.01-.17-.02-.33-.02-.47,0-.17.01-.37.04-.59s.05-.44.09-.67c.04-.23.08-.45.13-.68.05-.23.09-.43.14-.62l2.35-9.44c.12-.48.44-.72.95-.72Z"/>
      <path class="cls-1" d="M111.18,65.19c0-.23.03-.48.1-.75.23-.91.5-1.81.8-2.68.31-.88.58-1.75.83-2.61.25-.87.45-1.6.62-2.19s.31-1.1.44-1.53c.13-.43.24-.79.35-1.1.11-.31.22-.61.35-.92.08-.18.17-.37.27-.56.1-.19.2-.37.32-.54.11-.16.23-.3.36-.4.12-.1.25-.16.39-.16.27,0,.48.05.63.14.14.09.23.17.27.25l.09.41c.1,0,.23-.03.39-.06s.32-.06.49-.1c.16-.03.32-.07.46-.1s.25-.06.32-.09c.44-.12.85-.22,1.23-.31.38-.09.73-.16,1.07-.22.34-.06.66-.1.97-.13.31-.03.62-.04.94-.04s.56.02.75.05c.19.03.35.08.46.14.11.06.19.12.24.2.04.08.07.16.07.25,0,.08-.02.17-.07.26-.04.09-.12.18-.22.26-.1.08-.23.15-.39.21-.16.06-.36.1-.6.12-.06.01-.2.04-.42.08-.22.04-.45.08-.71.12-.25.04-.5.09-.72.13s-.39.07-.47.09h.01s-.14.03-.29.08c-.15.04-.33.09-.55.15s-.45.12-.7.2c-.25.07-.5.15-.75.22-.25.07-.47.14-.68.2-.21.06-.38.12-.5.16-.41.16-.73.38-.96.64-.23.27-.41.56-.55.89-.03.06-.07.16-.12.31s-.11.31-.18.49c-.06.18-.13.38-.21.59s-.14.41-.21.59c-.07.19-.13.36-.18.51s-.09.27-.11.34c-.02.07-.03.13-.04.18s0,.09,0,.12c0,.04,0,.06.03.06.1,0,.31-.04.63-.14.32-.09.69-.2,1.12-.34.43-.13.88-.28,1.37-.43.49-.15.95-.3,1.4-.43.45-.13.84-.25,1.19-.34s.6-.14.76-.14c.23,0,.39.04.47.12.08.08.12.16.12.26,0,.24-.09.45-.26.63-.17.18-.38.34-.64.47-.08.04-.23.1-.45.18-.22.08-.45.16-.71.24-.25.08-.49.16-.72.23s-.39.13-.49.16c-.66.25-1.19.46-1.61.63-.41.17-.75.3-1,.4-.25.1-.45.18-.59.24s-.27.1-.38.14c-.12.04-.25.07-.39.11-.14.03-.34.08-.58.14-.06.14-.13.35-.21.64s-.16.58-.23.89c-.07.31-.14.59-.19.85s-.08.44-.08.54c0,.12.02.21.05.27.03.06.07.1.12.12.05.02.09.03.14.03h.11c.32,0,.71-.05,1.16-.14.45-.09.9-.22,1.34-.37.42-.15.79-.31,1.11-.48s.61-.34.89-.49c.28-.15.55-.28.82-.38.27-.1.56-.16.87-.17.07,0,.15,0,.24.02.09.01.18.04.26.08.08.04.15.09.2.15s.07.14.06.23c-.03.19-.12.39-.29.57-.17.19-.38.37-.63.54s-.54.34-.86.5c-.32.16-.64.31-.97.46-.33.14-.65.27-.97.39-.32.12-.6.22-.85.31-.62.21-1.22.37-1.8.47-.58.1-1.11.15-1.57.15-.51,0-.9-.1-1.17-.29s-.41-.51-.41-.95Z"/>
      <path class="cls-1" d="M138.41,55.07c-.05.08-.12.22-.21.42-.08.2-.17.43-.26.68-.09.26-.18.53-.27.82-.09.29-.17.56-.25.81-.08.25-.14.47-.2.66s-.09.32-.1.38c-.01.07-.04.18-.08.33-.04.15-.07.28-.1.38.75-.25,1.5-.47,2.23-.63s1.47-.25,2.21-.25c.11,0,.27,0,.45.01.19,0,.37.03.55.08.18.04.34.11.47.21.13.09.2.23.2.4,0,0,0,.05,0,.12,0,.08-.03.17-.06.27-.03.1-.09.2-.16.3s-.17.17-.29.22c-.07,0-.15-.01-.22-.01h-.22c-.48,0-.95.04-1.43.13-.48.08-.96.2-1.45.34-.49.14-.97.32-1.45.51-.48.2-.97.41-1.45.63l-1.02,4.4c-.01.11-.07.22-.17.31s-.19.14-.29.14h-.24c-.25,0-.43-.1-.53-.31-.1-.21-.15-.48-.15-.8,0-.28.02-.58.07-.9.05-.33.1-.64.16-.95s.11-.59.16-.85c.05-.25.07-.45.07-.58-.08-.11-.16-.23-.24-.36-.08-.13-.12-.29-.12-.47,0-.3.08-.53.23-.71s.36-.35.61-.51c.03-.02.06-.06.09-.11s.06-.11.08-.18c.02-.07.04-.13.06-.2.02-.07.03-.12.04-.17l.41-1.49c.16-.58.31-1.1.43-1.54s.25-.83.35-1.18c.11-.35.21-.66.3-.94s.18-.55.27-.81c.03-.09.07-.21.14-.37.06-.16.14-.32.23-.47.09-.15.19-.29.31-.4.11-.11.24-.17.37-.17.3,0,.51.03.62.08.11.05.18.12.22.2l.09.22c.11-.01.26-.04.46-.08.2-.04.4-.08.61-.13s.41-.09.59-.14c.18-.04.31-.08.39-.11.45-.12.86-.22,1.24-.31s.73-.16,1.07-.22c.33-.06.66-.1.97-.13.31-.03.62-.04.94-.04.15,0,.29,0,.41.02.13.01.24.04.33.08s.16.09.22.16c.05.07.08.16.08.28,0,.06-.01.14-.04.23-.03.09-.07.18-.13.27s-.14.18-.25.26c-.1.08-.23.14-.39.18-.05.01-.13.03-.25.06-.12.02-.26.05-.42.08-.16.03-.33.06-.5.09s-.35.06-.51.08c-.25.06-.54.13-.86.2-.32.07-.65.15-1,.24-.35.09-.69.18-1.04.28-.35.1-.68.21-.99.31s-.59.22-.83.33-.44.23-.58.35Z"/>
      <path class="cls-1" d="M145.29,64.67c.38-1.54.78-3.05,1.19-4.55s.81-3.02,1.19-4.56c.05-.2.09-.39.14-.57.05-.18.09-.36.13-.54.04-.18.07-.36.1-.55.02-.18.04-.38.04-.58,0-.15-.01-.29-.03-.42-.02-.13-.03-.27-.03-.43s.02-.32.06-.49c.1-.41.24-.71.43-.92s.46-.3.84-.3c.15,0,.3.01.45.04.14.03.29.07.43.11.15.05.31.09.48.12s.33.05.5.05c.13,0,.27,0,.39-.02.13-.01.27-.03.44-.04.16-.01.36-.03.58-.04.22-.01.51-.02.85-.02.19,0,.41,0,.66.02.25.01.52.04.8.09s.55.12.84.21c.28.09.54.21.79.37.25.15.46.34.65.57s.33.5.42.81c.05.15.08.29.1.42.02.13.03.25.03.37,0,.41-.1.81-.31,1.21-.23.45-.55.87-.95,1.26-.4.39-.86.76-1.39,1.11-.21.14-.45.29-.72.44-.28.15-.54.29-.81.43-.26.14-.5.26-.71.38-.21.11-.36.2-.44.26.24.11.47.23.71.36.23.12.47.27.72.45s.49.39.75.63c.25.25.51.55.79.91.27.36.55.78.85,1.27.29.49.6,1.07.91,1.73.08.16.12.33.12.51,0,.14-.03.28-.09.42-.06.14-.13.27-.23.38s-.21.21-.35.28c-.13.07-.28.11-.43.11-.23,0-.43-.09-.58-.26-.15-.17-.3-.4-.44-.68-.14-.28-.29-.6-.44-.96-.15-.36-.34-.71-.56-1.08-.24-.39-.51-.76-.8-1.11-.29-.35-.6-.65-.93-.91-.33-.25-.67-.46-1.02-.61-.35-.15-.7-.23-1.05-.23h-.15c-.21,0-.39.02-.56.06-.17.04-.32.07-.48.1-.21-.07-.36-.2-.45-.36-.09-.17-.14-.36-.14-.56v-.14l-.81,3.17c-.03.1-.06.24-.11.41-.05.17-.1.37-.16.57s-.12.43-.19.65c-.06.23-.12.44-.18.64-.06.2-.11.38-.15.54-.04.16-.08.28-.1.36-.09.17-.21.3-.36.4-.14.1-.3.15-.47.15-.3,0-.5-.09-.61-.27s-.17-.38-.17-.62c0-.09,0-.19.02-.29.01-.1.03-.19.05-.28ZM150.24,53.31c-.04.13-.1.33-.18.58-.08.26-.16.54-.26.87-.09.32-.2.67-.3,1.04-.11.37-.21.74-.32,1.11-.11.37-.21.73-.31,1.08-.1.35-.19.66-.27.94.13-.17.33-.33.6-.47s.57-.27.91-.39c.26-.09.58-.23.97-.4.38-.17.78-.37,1.2-.59.42-.22.84-.46,1.26-.72.42-.26.8-.52,1.13-.8.33-.27.6-.54.81-.82.21-.27.31-.54.31-.79s-.09-.44-.26-.59-.39-.25-.65-.33c-.26-.07-.55-.12-.86-.15-.31-.02-.6-.04-.87-.04-.48,0-.97.03-1.45.09-.48.06-.97.18-1.45.35Z"/>
      <path class="cls-1" d="M160.73,60.16c.06-.26.13-.55.22-.87.08-.32.17-.65.27-.99.1-.34.2-.69.3-1.04.1-.35.2-.68.3-1.01s.19-.62.27-.9c.08-.28.15-.52.21-.71.13-.44.25-.87.36-1.31s.22-.9.33-1.38c.13-.26.32-.45.54-.56.23-.11.48-.17.74-.17.21.11.38.27.51.47.12.2.19.42.19.67,0,.17-.03.37-.09.6-.06.23-.13.47-.22.72-.09.26-.18.53-.29.82-.11.29-.21.58-.31.88-.19.55-.38,1.1-.56,1.65-.19.55-.37,1.13-.55,1.74-.05.16-.1.32-.15.48s-.11.34-.17.52c-.06.19-.12.4-.19.63-.07.23-.13.5-.2.8-.08.36-.15.71-.21,1.07-.06.36-.12.72-.17,1.08s-.11.73-.18,1.1c-.07.37-.15.74-.24,1.12-.03.13-.09.25-.18.36-.08.1-.18.19-.29.27s-.22.13-.34.17c-.12.04-.24.06-.34.06s-.21,0-.31-.03c-.1-.02-.17-.05-.23-.12-.08-.09-.14-.18-.19-.29s-.07-.22-.07-.34c0-.03,0-.07,0-.1,0-.03,0-.06.01-.09l1.22-5.31Z"/>
      <path class="cls-1" d="M165.46,65.19c0-.23.03-.48.1-.75.23-.91.5-1.81.8-2.68.3-.88.58-1.75.83-2.61.25-.87.46-1.6.62-2.19s.31-1.1.44-1.53c.13-.43.25-.79.35-1.1.11-.31.22-.61.35-.92.08-.18.17-.37.27-.56.1-.19.2-.37.32-.54.11-.16.23-.3.36-.4.12-.1.25-.16.39-.16.27,0,.48.05.63.14.14.09.23.17.27.25l.09.41c.1,0,.23-.03.39-.06s.32-.06.49-.1c.16-.03.32-.07.46-.1s.25-.06.32-.09c.44-.12.85-.22,1.23-.31.38-.09.73-.16,1.07-.22.34-.06.66-.1.97-.13.31-.03.62-.04.94-.04s.56.02.75.05c.19.03.35.08.46.14.11.06.19.12.24.2.04.08.07.16.07.25,0,.08-.02.17-.07.26-.04.09-.12.18-.22.26-.1.08-.23.15-.39.21-.16.06-.36.1-.6.12-.06.01-.2.04-.42.08-.22.04-.45.08-.71.12-.26.04-.5.09-.73.13-.23.04-.39.07-.47.09h0s-.14.03-.29.08c-.15.04-.33.09-.55.15s-.45.12-.7.2c-.25.07-.5.15-.75.22-.25.07-.47.14-.68.2-.21.06-.38.12-.5.16-.41.16-.73.38-.96.64-.23.27-.42.56-.55.89-.03.06-.07.16-.12.31s-.11.31-.18.49c-.06.18-.13.38-.21.59-.07.21-.14.41-.21.59-.07.19-.13.36-.18.51-.05.15-.09.27-.11.34-.02.07-.03.13-.04.18s0,.09,0,.12c0,.04,0,.06.03.06.1,0,.31-.04.63-.14.32-.09.69-.2,1.12-.34.43-.13.88-.28,1.37-.43s.95-.3,1.4-.43c.45-.13.84-.25,1.19-.34.35-.09.6-.14.75-.14.23,0,.39.04.47.12.08.08.12.16.12.26,0,.24-.09.45-.26.63-.17.18-.38.34-.64.47-.08.04-.23.1-.45.18-.22.08-.45.16-.71.24-.25.08-.49.16-.72.23s-.39.13-.49.16c-.66.25-1.19.46-1.61.63-.41.17-.75.3-1,.4-.25.1-.45.18-.59.24s-.26.1-.38.14c-.12.04-.25.07-.39.11-.14.03-.34.08-.58.14-.06.14-.13.35-.21.64-.08.29-.16.58-.23.89-.07.31-.14.59-.19.85-.05.26-.08.44-.08.54,0,.12.02.21.05.27.03.06.07.1.12.12.05.02.09.03.14.03h.11c.32,0,.71-.05,1.16-.14.45-.09.9-.22,1.34-.37.42-.15.79-.31,1.11-.48s.61-.34.89-.49c.28-.15.55-.28.82-.38.26-.1.56-.16.87-.17.07,0,.15,0,.24.02s.18.04.26.08c.08.04.15.09.2.15.05.06.07.14.06.23-.03.19-.12.39-.29.57-.17.19-.38.37-.63.54s-.54.34-.86.5c-.32.16-.64.31-.97.46-.33.14-.65.27-.97.39-.32.12-.6.22-.85.31-.62.21-1.22.37-1.8.47-.58.1-1.11.15-1.57.15-.51,0-.9-.1-1.17-.29-.27-.19-.41-.51-.41-.95Z"/>
      <path class="cls-1" d="M181,53.76c.04-.17.09-.36.15-.56.06-.2.14-.38.24-.54s.23-.3.39-.41c.16-.11.37-.17.61-.17.23,0,.44.07.63.2s.35.26.5.4c.17.11.34.35.5.7.16.35.33.78.5,1.29.17.51.36,1.09.55,1.73.2.64.42,1.32.65,2.02.24.71.5,1.42.8,2.16.3.74.63,1.45,1.01,2.15.06.11.13.23.21.38.08.14.16.28.25.41.08.13.16.24.23.32.07.09.12.13.16.13.02,0,.04-.05.07-.15.03-.1.06-.22.09-.36.03-.14.07-.29.11-.43s.07-.27.11-.36c.13-.31.27-.66.42-1.06.15-.4.32-.88.5-1.45.18-.57.39-1.24.61-2.02.22-.78.47-1.7.74-2.77.07-.26.14-.56.22-.89.08-.33.15-.67.22-1.02s.13-.68.19-1.01.09-.61.11-.86c0-.04,0-.11.01-.21,0-.1.02-.21.04-.34.02-.13.04-.26.07-.4.03-.14.06-.26.11-.38s.1-.21.17-.28c.07-.07.15-.11.24-.11s.21.01.35.04c.14.03.26.07.38.12.13.17.24.38.35.63.1.25.16.58.16.99,0,.26-.03.58-.08.94-.05.37-.12.76-.21,1.18-.08.42-.18.85-.28,1.29-.1.44-.21.87-.32,1.27-.11.41-.21.78-.31,1.12-.1.34-.18.62-.25.84-.12.39-.25.79-.38,1.2s-.27.85-.43,1.3c-.16.45-.33.93-.51,1.44s-.39,1.05-.62,1.63c-.1.26-.22.52-.35.79s-.28.5-.45.71c-.17.21-.36.38-.57.51-.21.13-.45.2-.71.2-.15,0-.31-.02-.48-.07-.16-.04-.3-.13-.42-.27-.55-.64-1.04-1.36-1.47-2.17-.43-.81-.81-1.65-1.15-2.54s-.64-1.78-.9-2.68-.5-1.77-.71-2.59l-.06-.23c-.03-.09-.05-.19-.08-.29-.02-.1-.05-.19-.07-.27-.02-.08-.05-.15-.08-.2-.03-.05-.07-.08-.11-.08s-.09.07-.15.22-.12.31-.18.5c-.06.18-.12.36-.17.54-.05.17-.08.29-.1.33-.05.17-.12.42-.21.75s-.2.69-.32,1.1-.25.84-.38,1.3c-.14.46-.27.9-.4,1.32-.13.43-.25.82-.36,1.18s-.21.65-.28.88c-.06.17-.13.4-.22.67-.09.28-.17.55-.26.83-.09.28-.17.53-.24.76-.07.23-.12.38-.14.45-.08.26-.2.45-.36.58s-.32.2-.48.2c-.1,0-.2-.04-.3-.11s-.19-.16-.27-.26-.14-.21-.19-.33c-.05-.12-.08-.22-.08-.32,0-.05.02-.14.05-.26.03-.12.09-.32.16-.6l.26-1.04,2.98-9.64Z"/>
      <path class="cls-1" d="M193.5,64.43c.31-.22.62-.36.94-.42.32-.06.66-.1,1.01-.14l2.52-10.19s-.1,0-.23,0c-.12,0-.26-.01-.41-.03-.15-.02-.3-.05-.45-.09s-.26-.1-.33-.17c-.03-.05-.08-.11-.13-.19-.05-.08-.1-.16-.15-.25s-.09-.18-.12-.28-.05-.19-.05-.28c0-.15.07-.28.2-.39.13-.1.29-.19.48-.25.19-.06.4-.11.62-.14.22-.03.42-.04.6-.04.85,0,1.63.03,2.35.08.72.05,1.4.16,2.02.33.63.17,1.22.41,1.77.71.55.31,1.08.72,1.59,1.24.19.2.37.41.54.65.17.24.32.51.45.79s.24.59.32.92c.08.33.12.67.12,1.03,0,.2-.01.4-.03.61-.02.21-.05.4-.08.55-.19.78-.47,1.47-.82,2.07-.35.6-.76,1.13-1.23,1.6-.47.47-.98.87-1.54,1.21-.56.34-1.13.64-1.73.9-.6.25-1.2.48-1.82.66-.62.19-1.22.36-1.8.5h.01c-.26.08-.54.15-.85.21-.3.06-.61.11-.92.15-.31.04-.62.07-.92.1-.3.02-.59.04-.86.04-.3,0-.54-.02-.75-.06-.2-.04-.36-.09-.49-.15-.12-.06-.21-.14-.27-.22-.05-.08-.08-.17-.08-.26,0-.13.04-.27.12-.42.08-.14.2-.28.38-.41ZM197.92,61.54c-.08.34-.16.69-.25,1.06-.09.36-.17.72-.25,1.07l.23-.05c.15-.03.35-.08.6-.15.25-.07.54-.15.87-.25s.67-.22,1.04-.36c.36-.14.75-.31,1.15-.51s.81-.42,1.2-.67c.4-.25.78-.53,1.14-.82s.68-.61.96-.95.5-.7.66-1.07c.17-.37.25-.76.25-1.16s-.08-.8-.24-1.16c-.16-.37-.38-.71-.65-1.02-.27-.31-.59-.59-.95-.84-.36-.25-.73-.45-1.12-.63-.39-.18-.78-.31-1.18-.4-.4-.09-.78-.14-1.13-.14-.5,1.3-.93,2.63-1.29,3.97-.36,1.34-.7,2.71-1.03,4.09Z"/>
      <path class="cls-1" d="M208.39,63.61c.23.08.46.17.7.28.24.11.48.21.74.31.25.1.52.18.8.25.28.07.58.1.89.1.37,0,.74-.04,1.12-.13.38-.09.74-.22,1.1-.39.36-.17.7-.38,1.03-.62.33-.24.63-.53.91-.85.3-.34.55-.65.75-.93s.36-.53.49-.75c.12-.22.21-.41.27-.56.05-.16.08-.29.08-.41,0-.17-.06-.31-.17-.44s-.27-.23-.46-.31c-.19-.08-.41-.14-.65-.18-.24-.04-.49-.06-.75-.06-.15,0-.34,0-.54.02-.21,0-.42.02-.63.03-.21,0-.42.02-.62.02-.2,0-.38.01-.52.01-.22,0-.45-.03-.69-.08-.24-.05-.47-.13-.7-.25s-.44-.27-.63-.46-.36-.44-.48-.73c-.04-.09-.08-.2-.11-.33-.03-.13-.05-.26-.05-.41,0-.16.01-.31.04-.46.02-.14.05-.28.09-.42.09-.34.25-.68.47-1.02s.48-.68.79-1.01c.31-.33.64-.65,1-.96.36-.31.73-.6,1.11-.87.38-.27.75-.52,1.12-.74.37-.22.71-.4,1.02-.56.44-.21.89-.37,1.35-.47.46-.1.91-.15,1.36-.15.27,0,.52.04.77.11.24.07.45.17.64.31.18.13.33.3.44.5s.16.42.16.68c0,.15-.02.27-.05.37-.03.1-.08.18-.13.25s-.11.11-.18.14c-.06.03-.13.04-.2.04-.18,0-.35-.02-.5-.06-.15-.04-.3-.08-.44-.14-.14-.05-.28-.1-.42-.14-.14-.04-.29-.07-.46-.07-.5,0-1,.1-1.51.3-.51.2-1.01.45-1.5.75-.49.31-.95.65-1.38,1.02-.43.38-.82.74-1.16,1.1-.18.19-.31.38-.4.56-.08.19-.13.37-.13.53,0,.25.11.44.32.58.21.14.48.21.79.21.18,0,.39,0,.61,0,.23,0,.46-.02.7-.03s.47-.02.69-.03.42-.01.6-.01c.42,0,.81.06,1.2.18s.72.29,1.02.52c.3.23.53.51.71.85s.27.73.27,1.16c0,.27-.04.54-.12.82-.08.27-.19.55-.33.83-.14.28-.3.55-.48.83-.18.27-.37.54-.57.8-.36.47-.77.91-1.21,1.33-.45.42-.92.78-1.42,1.09-.5.31-1.04.55-1.6.73-.56.18-1.14.27-1.73.27-.25,0-.52-.02-.79-.07s-.53-.12-.79-.21-.51-.21-.74-.34c-.23-.14-.43-.29-.61-.47-.17-.17-.31-.37-.42-.58-.1-.21-.16-.44-.16-.69,0-.12.02-.24.06-.35.04-.11.13-.17.28-.17Z"/>
    </g>
  </g>
</svg>
